<svg xmlns="http://www.w3.org/2000/svg" width="600" height="149" viewBox="0 0 600 149" version="1.1"><path d="M 29.500 16.205 C 14.650 24.961, 1.928 32.459, 1.228 32.865 C 0.222 33.450, 0.293 34.281, 1.573 36.845 L 3.189 40.086 6.845 37.908 C 27.879 25.379, 56.434 9.884, 57.803 10.257 C 58.736 10.511, 70.525 16.836, 84 24.313 L 108.500 37.907 110.228 35.704 C 112.657 32.606, 112.620 32.541, 106.500 29.087 L 101 25.983 101 18.491 L 101 11 96.201 11 L 91.402 11 91.810 14.495 C 92.656 21.742, 92.186 21.645, 74.286 10.882 C 65.054 5.330, 57.275 0.674, 57 0.536 C 56.725 0.397, 44.350 7.448, 29.500 16.205 M 557 79.500 L 557 111 561.889 111 C 568.678 111, 571.394 108.692, 571.175 103.110 C 571.023 99.214, 573.189 94, 574.960 94 C 575.362 94, 578.040 97.845, 580.912 102.544 L 586.133 111.088 592.817 110.794 C 602.285 110.377, 602.270 108.811, 592.674 95.579 L 585.194 85.265 592.597 77.220 C 601.638 67.395, 601.675 68, 592.042 68 L 584.084 68 578.292 76.460 C 570.761 87.461, 570.900 87.603, 571.050 69.101 C 571.211 49.105, 570.626 48, 559.875 48 L 557 48 557 79.500 M 405.250 51.674 L 401 52.115 401 81.439 L 401 110.763 409.250 111.420 C 434.970 113.466, 450.959 104.299, 446.955 89.801 C 445.918 86.042, 440.067 80, 437.465 80 C 435.135 80, 435.767 78.640, 438.936 76.837 C 445.007 73.383, 446.896 62.914, 442.368 57.814 C 437.575 52.414, 422.367 49.899, 405.250 51.674 M 75 66.378 C 75 80.835, 75.938 80.109, 57.469 79.944 C 40.763 79.795, 41.039 79.667, 41.015 87.550 C 40.993 94.959, 41.096 95, 59.834 95 C 78.512 95, 82.465 94.177, 87.190 89.307 L 90.500 85.895 90.820 70.447 L 91.141 55 83.070 55 L 75 55 75 66.378 M 415 68 L 415 75 419.550 75 C 424.563 75, 429.416 72.963, 430.379 70.455 C 432.519 64.879, 428.411 61, 420.365 61 L 415 61 415 68 M 463.338 68.091 C 457.923 69.382, 456.710 70.935, 457.563 75.484 C 458.066 78.166, 458.640 78.968, 459.751 78.542 C 468.108 75.335, 475.914 75.611, 478.430 79.203 C 480.549 82.229, 479.876 82.668, 472.275 83.214 C 456.814 84.324, 448.504 95.115, 454.960 105.701 C 459.016 112.354, 471.147 114.224, 477.894 109.237 C 480.753 107.123, 480.799 107.121, 482.546 109.051 C 483.854 110.497, 485.626 111, 489.405 111.002 L 494.500 111.004 494 94.752 C 493.231 69.742, 485.308 62.853, 463.338 68.091 M 523.500 68.386 C 521.849 69.105, 519.882 70.437, 519.127 71.347 C 517.429 73.393, 516 73.479, 516 71.535 C 516 69.438, 512.773 68, 508.066 68 L 504 68 504 89.500 L 504 111 508.826 111 C 516.835 111, 518 108.945, 518 94.820 C 518 81.324, 519.459 78, 525.381 78 C 532.176 78, 534.213 83.203, 533.921 99.810 L 533.733 110.500 538.314 110.803 C 546.203 111.324, 547 109.710, 547 93.212 C 547 70.837, 538.494 61.851, 523.500 68.386 M 415 92.981 L 415 102.240 420.963 101.809 C 437.179 100.636, 436.343 86.249, 419.946 84.307 L 415 83.721 415 92.981 M 86.604 94.591 C 84.461 96.446, 81.302 98.228, 79.583 98.550 C 77.538 98.934, 75.877 100.150, 74.776 102.068 L 73.093 105 47.547 105 C 33.496 105, 22 105.362, 22 105.804 C 22 115.728, 32.336 119.919, 56.794 119.913 C 86.247 119.906, 91.497 116.631, 90.794 98.703 L 90.500 91.219 86.604 94.591 M 470.500 92.195 C 464.258 95.735, 467.018 104.034, 473.932 102.515 C 480.817 101.003, 482.841 90.977, 476.250 91.030 C 474.188 91.047, 471.600 91.571, 470.500 92.195 M 156 122.917 C 156 124.145, 156.646 125, 157.573 125 C 158.505 125, 159.015 124.320, 158.823 123.333 C 158.337 120.824, 156 120.480, 156 122.917 M 172.412 131.500 C 170.589 141.148, 170.563 142, 172.086 142 C 173.262 142, 173.941 140.771, 174.420 137.776 C 175.128 133.345, 177.380 130, 179.655 130 C 181.193 130, 181.339 132.833, 180.081 138.250 C 179.328 141.495, 179.448 142, 180.974 142 C 182.236 142, 182.915 140.932, 183.358 138.250 C 184.965 128.529, 183.542 125.521, 178.436 127.847 C 175.713 129.088, 175.611 128.844, 176.930 124.243 C 177.724 121.476, 177.606 121, 176.128 121 C 174.720 121, 174.023 122.970, 172.412 131.500 M 129.364 126.640 C 129.714 129.191, 130 133.723, 130 136.709 C 130 145.060, 133.536 144.074, 136.996 134.759 C 140.192 126.153, 141.249 126.220, 140.832 135.002 C 140.500 142.009, 143.686 145.780, 145.267 140.250 C 145.542 139.287, 147.378 134.787, 149.346 130.250 C 152.430 123.139, 152.685 122, 151.193 122 C 149.957 122, 148.610 124.216, 146.481 129.750 L 143.500 137.500 143.208 129.750 C 142.951 122.929, 142.690 122, 141.032 122 C 139.610 122, 138.404 123.900, 136.112 129.750 C 134.442 134.012, 133.025 137.050, 132.962 136.500 C 132.899 135.950, 132.913 132.463, 132.991 128.750 C 133.125 122.416, 132.998 122, 130.931 122 C 128.886 122, 128.774 122.332, 129.364 126.640 M 164.362 125.500 C 164.045 126.325, 163.159 127, 162.393 127 C 160.865 127, 160.477 129.559, 161.874 130.422 C 162.373 130.731, 162.374 132.969, 161.877 135.632 C 161.282 138.813, 161.361 140.730, 162.125 141.650 C 163.636 143.471, 167 143.367, 167 141.500 C 167 140.675, 166.550 140, 166 140 C 164.895 140, 164.692 135.752, 165.630 132.250 C 165.962 131.012, 166.808 130, 167.510 130 C 168.212 130, 169.045 129.325, 169.362 128.500 C 169.712 127.586, 169.363 127, 168.469 127 C 167.661 127, 167 126.325, 167 125.500 C 167 124.675, 166.536 124, 165.969 124 C 165.401 124, 164.678 124.675, 164.362 125.500 M 154.923 127.250 C 154.881 127.388, 154.702 128.250, 154.524 129.167 C 154.347 130.084, 153.697 133.187, 153.080 136.063 C 152.463 138.939, 152.173 141.507, 152.436 141.769 C 153.849 143.183, 155.781 140.615, 156.333 136.589 C 156.679 134.066, 157.244 130.876, 157.589 129.501 C 158.088 127.512, 155.510 125.335, 154.923 127.250 M 194.036 128.177 C 194.055 128.905, 194.714 132.192, 195.500 135.483 C 196.908 141.383, 196.894 141.501, 194.464 144.038 C 191.898 146.716, 191.246 149, 193.048 149 C 195.461 149, 207 131.237, 207 127.522 C 207 124.915, 203.441 128, 201.546 132.250 C 199.070 137.804, 198.627 137.541, 197.780 130.010 C 197.493 127.457, 193.970 125.732, 194.036 128.177 M 210.455 129.455 C 204.667 135.242, 208.980 144.908, 216.044 141.982 C 219.803 140.425, 221 138.280, 221 133.101 C 221 126.806, 215.132 124.777, 210.455 129.455 M 225.469 133.450 C 224.669 140.919, 225.819 143.528, 229.391 142.349 C 230.551 141.967, 232.486 141.724, 233.691 141.811 C 235.573 141.946, 235.981 141.299, 236.577 137.234 C 236.960 134.630, 237.644 131.503, 238.098 130.285 C 238.604 128.927, 238.518 127.820, 237.875 127.423 C 236.341 126.474, 235.192 128.032, 234.501 132 C 233.751 136.307, 231.280 140.265, 229.686 139.714 C 228.480 139.298, 228.339 137.259, 229.084 131.015 C 229.402 128.348, 229.110 127.455, 227.836 127.208 C 226.473 126.945, 226.044 128.077, 225.469 133.450 M 212.557 132.223 C 209.792 136.170, 211.175 140.714, 214.792 139.566 C 217.314 138.766, 219.148 134.015, 217.838 131.674 C 216.542 129.359, 214.407 129.581, 212.557 132.223 M 239.732 142 C 238.556 144.994, 238.472 146, 239.396 146 C 240.076 146, 241.643 144.200, 242.880 142 C 245.028 138.178, 245.043 138, 243.216 138 C 241.913 138, 240.802 139.276, 239.732 142" stroke="none" fill="#049ede" fill-rule="evenodd"/><path d="M 93.250 10.716 C 94.763 10.945, 97.237 10.945, 98.750 10.716 C 100.263 10.487, 99.025 10.300, 96 10.300 C 92.975 10.300, 91.737 10.487, 93.250 10.716 M 91.168 15.809 C 91.052 18.781, 90.642 19.897, 89.845 19.405 C 89.101 18.945, 88.964 19.132, 89.458 19.933 C 90.818 22.132, 92.156 19.458, 91.736 15.382 L 91.336 11.500 91.168 15.809 M 33.007 37.593 C 24.787 41.158, 21.718 46.446, 21.018 58.251 C 20.433 68.142, 20.419 68.117, 23.927 63.927 C 25.495 62.054, 28.589 60.148, 31.848 59.048 C 35.358 57.862, 37.601 56.427, 38.377 54.871 L 39.558 52.500 65.279 52.233 C 82.132 52.058, 91 51.610, 91 50.933 C 91 46.971, 83.484 38.930, 78.101 37.134 C 72.712 35.336, 37.382 35.696, 33.007 37.593 M 301.017 48.286 C 299.651 48.977, 298.124 50.707, 297.623 52.131 C 294.547 60.878, 306.179 66.674, 311.988 59.288 C 317.435 52.363, 309.227 44.132, 301.017 48.286 M 322.236 79.750 L 322.500 111.500 325.371 111.828 C 336.487 113.098, 337 111.679, 337 79.674 C 337 47.717, 337.088 48, 327.172 48 L 321.972 48 322.236 79.750 M 415.768 50.725 C 417.565 50.947, 420.265 50.943, 421.768 50.715 C 423.271 50.486, 421.800 50.304, 418.500 50.310 C 415.200 50.315, 413.971 50.502, 415.768 50.725 M 126.235 81.250 L 126.500 111.500 131.879 111.450 C 140.120 111.374, 142 108.679, 142 96.944 L 142 88 153 88 L 164 88 164 83.200 C 164 76.478, 163.190 76, 151.800 76 L 142 76 142 69.500 L 142 63 154 63 L 166 63 166 58.655 C 166 51.286, 165.183 51, 144.157 51 L 125.971 51 126.235 81.250 M 403.762 51.707 C 405.006 51.946, 406.806 51.937, 407.762 51.687 C 408.718 51.437, 407.700 51.241, 405.500 51.252 C 403.300 51.263, 402.518 51.468, 403.762 51.707 M 400.443 81.500 C 400.443 98, 400.580 104.890, 400.748 96.812 C 400.915 88.733, 400.916 75.233, 400.748 66.812 C 400.581 58.390, 400.444 65, 400.443 81.500 M 73.998 54.750 C 73.996 55.163, 77.809 55.355, 82.470 55.177 L 90.944 54.855 91.252 69.177 L 91.559 83.500 91.780 68.750 L 92 54 83 54 C 78.050 54, 73.999 54.337, 73.998 54.750 M 571.185 69.750 C 571.083 78.138, 571.337 85.001, 571.750 85.002 C 572.163 85.003, 572.381 80.391, 572.236 74.752 C 571.756 56.116, 571.372 54.291, 571.185 69.750 M 30.500 62.412 C 22.692 65.882, 21 70.452, 21 88.065 L 21 102 29.500 102 L 38 102 38 90.622 C 38 76.339, 36.982 77.120, 56.070 76.777 L 71.500 76.500 71.800 70.163 C 71.980 66.351, 71.633 63.262, 70.928 62.413 C 69.292 60.443, 34.932 60.442, 30.500 62.412 M 179.726 67.357 C 172.340 69.008, 171.520 69.861, 171.897 75.500 C 172.166 79.518, 173.337 80.175, 177.291 78.523 C 183.806 75.801, 194 76.945, 194 80.398 C 194 81.311, 191.988 81.888, 187.564 82.243 C 175.947 83.175, 168.395 88.637, 167.286 96.908 C 165.696 108.758, 179.808 116.544, 191.620 110.334 C 195.420 108.336, 195.865 108.294, 197.362 109.791 C 198.434 110.862, 200.772 111.428, 204.243 111.457 L 209.500 111.500 209.138 95 C 208.770 78.229, 208.391 76.311, 204.625 72.155 C 199.897 66.937, 190.073 65.044, 179.726 67.357 M 239.619 67.034 C 238.035 67.509, 235.723 68.851, 234.483 70.016 L 232.227 72.136 229.659 69.568 C 227.652 67.561, 226.094 67, 222.526 67 L 217.962 67 218.231 89.250 L 218.500 111.500 223.757 111.457 C 231.869 111.390, 232.404 110.430, 233 94.879 C 233.530 81.040, 234.776 78, 239.920 78 C 244.826 78, 245.470 79.927, 246 96.167 L 246.500 111.500 249.371 111.828 C 258.880 112.915, 261 109.839, 261 94.955 C 261 79.582, 264.434 74.486, 271.139 79.909 C 273.381 81.723, 273.525 82.565, 274 96.659 L 274.500 111.500 278.769 111.808 C 282.416 112.072, 283.485 111.669, 286.114 109.040 L 289.191 105.963 288.827 92.231 C 288.185 68.034, 275.738 58.252, 261.179 70.503 L 258.267 72.953 256.384 70.838 C 252.603 66.594, 246.053 65.108, 239.619 67.034 M 471.762 66.707 C 473.006 66.946, 474.806 66.937, 475.762 66.687 C 476.718 66.437, 475.700 66.241, 473.500 66.252 C 471.300 66.263, 470.518 66.468, 471.762 66.707 M 528.762 66.707 C 530.006 66.946, 531.806 66.937, 532.762 66.687 C 533.718 66.437, 532.700 66.241, 530.500 66.252 C 528.300 66.263, 527.518 66.468, 528.762 66.707 M 298 89.500 L 298 112 302.577 112 C 306.302 112, 307.698 111.456, 310.077 109.077 L 313 106.154 313 90.124 C 313 69.407, 311.850 67, 301.953 67 L 298 67 298 89.500 M 341.693 67.750 C 341.459 68.162, 345.219 77.725, 350.049 89 C 359.831 111.834, 359.765 111.117, 352.532 116.075 C 346.242 120.386, 344.701 131, 350.365 131 C 362.201 131, 370.659 119.752, 382.941 87.675 C 390.978 66.684, 391.023 67, 380.028 67 L 374.219 67 372.042 75.250 C 370.845 79.787, 369.152 86.121, 368.280 89.324 L 366.695 95.148 362.819 82.824 C 358.166 68.029, 357.231 67, 348.448 67 C 344.967 67, 341.927 67.338, 341.693 67.750 M 503.231 89.250 L 503.500 111.500 507.500 111.586 L 511.500 111.671 507.750 111.278 L 504 110.885 504 89.500 L 504 68.115 508.250 67.732 L 512.500 67.349 507.731 67.175 L 502.962 67 503.231 89.250 M 583.652 67.750 C 583.395 68.162, 585.956 68.374, 589.343 68.220 C 599.695 67.750, 600.921 67.307, 592.309 67.150 C 587.804 67.067, 583.908 67.338, 583.652 67.750 M 594.462 75.250 L 589.500 80.500 594.750 75.538 C 599.628 70.926, 600.459 70, 599.712 70 C 599.554 70, 597.192 72.362, 594.462 75.250 M 468.762 76.707 C 470.006 76.946, 471.806 76.937, 472.762 76.687 C 473.718 76.437, 472.700 76.241, 470.500 76.252 C 468.300 76.263, 467.518 76.468, 468.762 76.707 M 73.431 77.969 C 72.897 78.503, 66.395 79.079, 58.981 79.251 L 45.500 79.563 59.128 79.782 C 70.212 79.959, 72.987 79.720, 74 78.500 C 75.379 76.838, 74.956 76.444, 73.431 77.969 M 40.624 81.539 C 40.281 82.432, 40.066 85.264, 40.147 87.832 C 40.291 92.400, 40.309 92.372, 40.974 86.500 C 41.701 80.092, 41.620 78.943, 40.624 81.539 M 474.500 82 L 469.500 82.686 474.191 82.843 C 476.771 82.929, 479.160 82.550, 479.500 82 C 479.840 81.450, 479.979 81.071, 479.809 81.157 C 479.639 81.244, 477.250 81.623, 474.500 82 M 547.389 93.500 C 547.390 100.650, 547.550 103.444, 547.742 99.708 C 547.935 95.973, 547.934 90.123, 547.739 86.708 C 547.545 83.294, 547.387 86.350, 547.389 93.500 M 518.382 94.500 C 518.384 101.100, 518.546 103.670, 518.741 100.211 C 518.937 96.752, 518.936 91.352, 518.738 88.211 C 518.540 85.070, 518.380 87.900, 518.382 94.500 M 416.762 84.707 C 418.006 84.946, 419.806 84.937, 420.762 84.687 C 421.718 84.437, 420.700 84.241, 418.500 84.252 C 416.300 84.263, 415.518 84.468, 416.762 84.707 M 533.378 98 C 533.378 104.325, 533.541 106.912, 533.739 103.750 C 533.937 100.587, 533.937 95.412, 533.739 92.250 C 533.541 89.087, 533.378 91.675, 533.378 98 M 89.872 90.692 C 89.031 91.729, 88.967 92.104, 89.707 91.659 C 90.599 91.124, 91.004 92.971, 91.256 98.717 L 91.598 106.500 91.799 97.750 C 92.015 88.351, 91.954 88.126, 89.872 90.692 M 187.203 92.131 C 181.825 93.682, 180.758 100.399, 185.693 101.638 C 190.588 102.866, 195 98.741, 195 92.935 C 195 90.770, 192.733 90.537, 187.203 92.131 M 417.250 101.716 C 418.762 101.945, 421.238 101.945, 422.750 101.716 C 424.262 101.487, 423.025 101.300, 420 101.300 C 416.975 101.300, 415.738 101.487, 417.250 101.716 M 73.500 103 C 73.114 103.624, 63.343 104, 47.500 104 C 33.540 104, 21.909 104.338, 21.654 104.750 C 20.678 106.326, 72.712 105.052, 74.027 103.468 C 74.697 102.661, 74.991 102, 74.681 102 C 74.372 102, 73.840 102.450, 73.500 103 M 533 111.201 C 533 111.640, 535.138 111.964, 537.750 111.921 C 542.978 111.834, 542.555 111.349, 536.750 110.773 C 534.688 110.569, 533 110.761, 533 111.201 M 585.900 111.304 C 586.345 111.747, 589.362 111.966, 592.604 111.792 L 598.500 111.475 591.796 110.987 C 588.108 110.719, 585.455 110.862, 585.900 111.304 M 403.750 111.706 C 404.988 111.944, 407.012 111.944, 408.250 111.706 C 409.488 111.467, 408.475 111.272, 406 111.272 C 403.525 111.272, 402.512 111.467, 403.750 111.706 M 422.762 111.707 C 424.006 111.946, 425.806 111.937, 426.762 111.687 C 427.718 111.437, 426.700 111.241, 424.500 111.252 C 422.300 111.263, 421.518 111.468, 422.762 111.707 M 488.264 111.718 C 489.784 111.947, 492.034 111.941, 493.264 111.704 C 494.494 111.467, 493.250 111.279, 490.500 111.286 C 487.750 111.294, 486.744 111.488, 488.264 111.718 M 559.750 111.706 C 560.987 111.944, 563.013 111.944, 564.250 111.706 C 565.487 111.467, 564.475 111.272, 562 111.272 C 559.525 111.272, 558.513 111.467, 559.750 111.706 M 465.762 112.707 C 467.006 112.946, 468.806 112.937, 469.762 112.687 C 470.718 112.437, 469.700 112.241, 467.500 112.252 C 465.300 112.263, 464.518 112.468, 465.762 112.707 M 47.750 120.745 C 52.837 120.927, 61.162 120.927, 66.250 120.745 C 71.337 120.564, 67.175 120.415, 57 120.415 C 46.825 120.415, 42.662 120.564, 47.750 120.745 M 258.807 121.750 C 257.980 122.713, 257.025 124.287, 256.683 125.250 C 256.342 126.213, 255.708 127, 255.274 127 C 254.840 127, 254.432 130.600, 254.367 135 C 254.239 143.642, 257.048 147.106, 258.421 140 C 258.739 138.350, 259.261 135.650, 259.579 134 C 259.898 132.350, 260.750 131, 261.472 131 C 262.195 131, 263.059 130.288, 263.393 129.418 C 264.251 127.183, 264.183 127, 262.500 127 C 260.433 127, 260.610 125.081, 262.750 124.292 C 264.544 123.630, 265.957 122.082, 265.985 120.750 C 266.015 119.247, 260.269 120.048, 258.807 121.750 M 298.544 129.195 C 297.617 134.313, 296.617 139.512, 296.321 140.750 C 295.875 142.617, 296.200 143, 298.230 143 C 300.661 143, 301.657 139.483, 304.384 121.273 C 305.485 113.923, 299.949 121.433, 298.544 129.195 M 317.083 122.750 C 315.950 124.263, 314.669 125.950, 314.237 126.500 C 313.806 127.050, 313.407 130.200, 313.351 133.500 C 313.295 136.800, 313.081 140.164, 312.875 140.976 C 312.648 141.869, 313.334 142.581, 314.610 142.777 C 316.458 143.062, 316.867 142.351, 317.910 137.051 C 318.711 132.980, 319.575 131, 320.550 131 C 321.348 131, 322 130.100, 322 129 C 322 127.900, 321.550 127, 321 127 C 319.166 127, 319.971 124.820, 322 124.290 C 323.107 124, 324 122.926, 324 121.883 C 324 118.914, 319.541 119.472, 317.083 122.750 M 138.494 122.009 C 138.112 122.627, 138.070 123.403, 138.400 123.733 C 138.730 124.063, 139 123.808, 139 123.167 C 139 122.525, 139.900 122, 141 122 C 142.825 122, 143.003 122.677, 143.030 129.750 C 143.048 134.211, 143.399 136.863, 143.859 136 C 146.787 130.493, 141.605 116.977, 138.494 122.009 M 307.700 122.341 C 306.930 124.345, 308.575 126.377, 310.399 125.677 C 312.706 124.792, 312.470 121, 310.107 121 C 309.066 121, 307.982 121.603, 307.700 122.341 M 266.135 129.357 C 260.869 134.961, 263.174 143, 270.045 143 C 276.478 143, 280.888 133.031, 276.429 128.571 C 274.040 126.183, 268.736 126.588, 266.135 129.357 M 281.425 130.833 C 281.076 132.850, 280.440 136.165, 280.012 138.201 C 279.156 142.275, 279.472 143, 282.105 143 C 283.435 143, 284.043 141.894, 284.541 138.574 C 285.005 135.479, 286.077 133.371, 288.102 131.566 C 292.065 128.036, 291.754 127.167, 286.530 127.167 C 282.164 127.167, 282.044 127.253, 281.425 130.833 M 306.565 129.250 C 305.495 134.342, 304 142.133, 304 142.619 C 304 150.175, 310.758 136.702, 310.956 128.750 C 311.023 126.068, 307.141 126.510, 306.565 129.250 M 324.589 130.077 C 318.571 137.229, 323.926 145.652, 332.418 142.393 C 335.414 141.243, 334.185 139, 330.559 139 C 325.511 139, 325.472 137.556, 330.484 136.215 C 335.277 134.934, 336.846 132.450, 335.020 129.038 C 333.256 125.742, 327.777 126.287, 324.589 130.077 M 129.424 134.989 C 129.501 142.580, 131.215 145.185, 134.182 142.218 C 134.808 141.592, 134.255 141.420, 132.622 141.732 C 130.126 142.209, 130.087 142.117, 129.720 134.858 L 129.349 127.500 129.424 134.989 M 139.744 133.750 C 140.335 142.085, 140.830 142.505, 140.921 134.750 C 140.964 131.037, 140.625 128, 140.168 128 C 139.710 128, 139.519 130.588, 139.744 133.750 M 3 136.500 L 3 143 56 143 L 109 143 109 136.500 L 109 130 56 130 L 3 130 3 136.500 M 178.649 130.765 C 179.281 131.169, 180.007 132.625, 180.263 134 C 180.656 136.117, 180.749 136.002, 180.864 133.250 C 180.968 130.764, 180.588 130.004, 179.250 130.015 C 178.126 130.025, 177.911 130.293, 178.649 130.765 M 221.252 133.500 C 221.263 135.700, 221.468 136.482, 221.707 135.238 C 221.946 133.994, 221.937 132.194, 221.687 131.238 C 221.437 130.282, 221.241 131.300, 221.252 133.500 M 269.643 131.500 C 267.068 134.075, 267.440 139.222, 270.172 138.820 C 273.108 138.388, 274.830 133.402, 272.759 131.330 C 271.461 130.033, 271.090 130.053, 269.643 131.500 M 328 131.500 C 326.960 132.753, 327.104 133, 328.878 133 C 330.098 133, 331 132.362, 331 131.500 C 331 130.675, 330.605 130, 330.122 130 C 329.640 130, 328.685 130.675, 328 131.500 M 224.150 137.628 C 224.057 139.558, 224.670 141.280, 225.750 142.128 C 227.273 143.322, 227.349 143.305, 226.338 142 C 225.700 141.175, 224.980 139.150, 224.738 137.500 L 224.300 134.500 224.150 137.628 M 228.136 136.691 C 227.956 139.592, 229.839 140.642, 231.600 138.622 C 232.374 137.734, 232.466 137.456, 231.804 138.004 C 229.962 139.528, 229.180 139.212, 228.706 136.750 C 228.273 134.501, 228.272 134.501, 228.136 136.691 M 236 140.117 C 236 141.788, 235.549 142.115, 233.856 141.673 C 232.325 141.272, 232.020 141.420, 232.789 142.189 C 234.354 143.754, 237 142.398, 237 140.031 C 237 138.914, 236.775 138, 236.500 138 C 236.225 138, 236 138.952, 236 140.117" stroke="none" fill="#046cb4" fill-rule="evenodd"/></svg>